<svg xmlns="http://www.w3.org/2000/svg" width="1200" height="630" viewBox="0 0 1200 630">
  <defs>
    <linearGradient id="bg" x1="0%" y1="0%" x2="100%" y2="100%">
      <stop offset="0%" style="stop-color:#030712"/>
      <stop offset="100%" style="stop-color:#0f172a"/>
    </linearGradient>
    <linearGradient id="codeBlockBg" x1="0%" y1="0%" x2="0%" y2="100%">
      <stop offset="0%" style="stop-color:#1e293b"/>
      <stop offset="100%" style="stop-color:#111827"/>
    </linearGradient>
  </defs>

  <!-- Background -->
  <rect width="1200" height="630" fill="url(#bg)"/>

  <!-- Subtle grid -->
  <g opacity="0.04">
    <line x1="200" y1="0" x2="200" y2="630" stroke="#60a5fa" stroke-width="1"/>
    <line x1="400" y1="0" x2="400" y2="630" stroke="#60a5fa" stroke-width="1"/>
    <line x1="600" y1="0" x2="600" y2="630" stroke="#60a5fa" stroke-width="1"/>
    <line x1="800" y1="0" x2="800" y2="630" stroke="#60a5fa" stroke-width="1"/>
    <line x1="1000" y1="0" x2="1000" y2="630" stroke="#60a5fa" stroke-width="1"/>
    <line x1="0" y1="126" x2="1200" y2="126" stroke="#60a5fa" stroke-width="1"/>
    <line x1="0" y1="252" x2="1200" y2="252" stroke="#60a5fa" stroke-width="1"/>
    <line x1="0" y1="378" x2="1200" y2="378" stroke="#60a5fa" stroke-width="1"/>
    <line x1="0" y1="504" x2="1200" y2="504" stroke="#60a5fa" stroke-width="1"/>
  </g>

  <!-- Glow accents -->
  <circle cx="1050" cy="80" r="120" fill="#3b82f6" opacity="0.05"/>
  <circle cx="100" cy="580" r="80" fill="#60a5fa" opacity="0.03"/>

  <!-- Code block card -->
  <rect x="710" y="110" width="430" height="380" rx="12" fill="url(#codeBlockBg)" stroke="#1e3a8a" stroke-width="1" opacity="0.9"/>

  <!-- Window dots -->
  <circle cx="738" cy="138" r="6" fill="#ef4444" opacity="0.7"/>
  <circle cx="758" cy="138" r="6" fill="#eab308" opacity="0.7"/>
  <circle cx="778" cy="138" r="6" fill="#22c55e" opacity="0.7"/>

  <!-- Hierarchy tree -->
  <text x="738" y="176" font-family="monospace" font-size="12" fill="#6b7280">// 4-tier governance model</text>

  <!-- Tier 1 -->
  <rect x="738" y="192" width="370" height="34" rx="4" fill="#1d4ed8" opacity="0.25"/>
  <rect x="738" y="192" width="4" height="34" rx="2" fill="#3b82f6"/>
  <text x="752" y="208" font-family="monospace" font-size="11" fill="#93c5fd">Tier 1: CLAUDE.md</text>
  <text x="752" y="222" font-family="monospace" font-size="10" fill="#6b7280">router only · ~20 lines · beats nothing</text>

  <!-- Connector -->
  <line x1="750" y1="226" x2="750" y2="242" stroke="#374151" stroke-width="1"/>
  <polygon points="746,242 754,242 750,248" fill="#374151"/>

  <!-- Tier 2 -->
  <rect x="738" y="252" width="370" height="34" rx="4" fill="#1d4ed8" opacity="0.35"/>
  <rect x="738" y="252" width="4" height="34" rx="2" fill="#60a5fa"/>
  <text x="752" y="268" font-family="monospace" font-size="11" fill="#bfdbfe">Tier 2: constitution.md  v1.10.0</text>
  <text x="752" y="282" font-family="monospace" font-size="10" fill="#6b7280">principles · versioned · highest authority</text>

  <!-- Connector -->
  <line x1="750" y1="286" x2="750" y2="302" stroke="#374151" stroke-width="1"/>
  <polygon points="746,302 754,302 750,308" fill="#374151"/>

  <!-- Tier 3 -->
  <rect x="738" y="312" width="370" height="34" rx="4" fill="#1d4ed8" opacity="0.2"/>
  <rect x="738" y="312" width="4" height="34" rx="2" fill="#93c5fd"/>
  <text x="752" y="328" font-family="monospace" font-size="11" fill="#e2e8f0">/api-patterns  /ui-conversion  /datatables</text>
  <text x="752" y="342" font-family="monospace" font-size="10" fill="#6b7280">skills · on-demand · evolve independently</text>

  <!-- Connector -->
  <line x1="750" y1="346" x2="750" y2="362" stroke="#374151" stroke-width="1"/>
  <polygon points="746,362 754,362 750,368" fill="#374151"/>

  <!-- Tier 4 -->
  <rect x="738" y="372" width="370" height="34" rx="4" fill="#1d4ed8" opacity="0.12"/>
  <rect x="738" y="372" width="4" height="34" rx="2" fill="#475569"/>
  <text x="752" y="388" font-family="monospace" font-size="11" fill="#94a3b8">Tier 4: .cursor/rules/*.mdc</text>
  <text x="752" y="402" font-family="monospace" font-size="10" fill="#6b7280">hints only · remind, never govern</text>

  <line x1="738" y1="420" x2="1108" y2="420" stroke="#374151" stroke-width="1" stroke-dasharray="4,4"/>
  <text x="738" y="440" font-family="monospace" font-size="11" fill="#6b7280">// Every file declares its own authority.</text>
  <text x="738" y="458" font-family="monospace" font-size="11" fill="#4ade80">// Conflict resolution: tier wins.</text>
  <text x="738" y="476" font-family="monospace" font-size="11" fill="#6b7280">// 8 months. Zero silent contradictions.</text>

  <!-- Cursor -->
  <rect x="738" y="485" width="8" height="14" fill="#60a5fa" opacity="0.7"/>

  <!-- Series label -->
  <text x="70" y="148" font-family="'Inter', system-ui, sans-serif" font-weight="700" font-size="13" fill="#60a5fa" letter-spacing="3">AI CONTEXT ENGINEERING · PART 4 OF 4</text>
  <rect x="70" y="160" width="80" height="3" rx="1.5" fill="#3b82f6" opacity="0.6"/>

  <!-- Title -->
  <text x="70" y="240" font-family="'Inter', system-ui, sans-serif" font-weight="700" font-size="52" fill="#f3f4f6">Constitutional</text>
  <text x="70" y="305" font-family="'Inter', system-ui, sans-serif" font-weight="700" font-size="52" fill="#60a5fa">AI Context</text>

  <!-- Subtitle -->
  <text x="70" y="358" font-family="'Inter', system-ui, sans-serif" font-weight="400" font-size="17" fill="#9ca3af">How to structure rules that don't drift.</text>

  <!-- Divider -->
  <line x1="70" y1="385" x2="340" y2="385" stroke="#1e3a8a" stroke-width="1"/>

  <!-- Governance callouts -->
  <text x="70" y="412" font-family="'Inter', system-ui, sans-serif" font-size="14" fill="#94a3b8">Versioned constitution</text>
  <text x="70" y="434" font-family="'Inter', system-ui, sans-serif" font-size="14" fill="#94a3b8">Explicit precedence declarations</text>
  <text x="70" y="456" font-family="'Inter', system-ui, sans-serif" font-size="14" fill="#94a3b8">Lightweight amendment process</text>

  <!-- Tags -->
  <rect x="70" y="490" width="115" height="32" rx="16" fill="none" stroke="#2563eb" stroke-width="1.5" opacity="0.7"/>
  <text x="128" y="511" font-family="'Inter', system-ui, sans-serif" font-weight="500" font-size="13" fill="#60a5fa" text-anchor="middle">Claude Code</text>

  <rect x="200" y="490" width="72" height="32" rx="16" fill="none" stroke="#2563eb" stroke-width="1.5" opacity="0.7"/>
  <text x="236" y="511" font-family="'Inter', system-ui, sans-serif" font-weight="500" font-size="13" fill="#60a5fa" text-anchor="middle">.NET</text>

  <rect x="287" y="490" width="120" height="32" rx="16" fill="none" stroke="#2563eb" stroke-width="1.5" opacity="0.7"/>
  <text x="347" y="511" font-family="'Inter', system-ui, sans-serif" font-weight="500" font-size="13" fill="#60a5fa" text-anchor="middle">Governance</text>

  <!-- Bottom bar -->
  <line x1="70" y1="560" x2="1130" y2="560" stroke="#1e293b" stroke-width="1"/>
  <text x="70" y="590" font-family="'Inter', system-ui, sans-serif" font-weight="700" font-size="16" fill="#d1d5db">romano.io</text>
  <text x="163" y="590" font-family="'Inter', system-ui, sans-serif" font-weight="400" font-size="14" fill="#6b7280">  ·  AI, .NET &amp; Agentic Development</text>
  <text x="1130" y="590" font-family="'Inter', system-ui, sans-serif" font-weight="400" font-size="14" fill="#6b7280" text-anchor="end">March 26, 2026</text>
</svg>
